<svg width="41" height="41" viewBox="0 0 41 41" fill="none" xmlns="http://www.w3.org/2000/svg">
<path d="M29.075 13.7348C28.7125 13.3848 28.2375 13.1973 27.7375 13.1973H13.2625C12.225 13.1973 11.375 14.0223 11.375 15.0473V15.0848L20.45 22.1473L20.5 22.1848L29.5875 15.0973L29.625 15.0598V15.0223C29.625 14.5348 29.425 14.0598 29.075 13.7223V13.7348Z" fill="white"/>
<path d="M20.5 23.7598L17.2 21.1973L11.4125 25.5348L11.375 25.5723V25.6098C11.375 26.0973 11.575 26.5598 11.925 26.9098C12.275 27.2473 12.7625 27.4473 13.2625 27.4473H27.725C28.225 27.4473 28.7 27.2598 29.0625 26.9098C29.425 26.5598 29.6125 26.0973 29.6125 25.5973V25.5598L23.7875 21.1973L20.4875 23.7598H20.5Z" fill="white"/>
<path d="M24.8 20.4098L29.4875 23.8848L29.625 23.9848V16.6473L24.8875 20.3473L24.8 20.4098Z" fill="white"/>
<path d="M16.2 20.4098L11.375 16.6473V23.9848L16.1125 20.4723L16.2 20.4098Z" fill="white"/>
<path fill-rule="evenodd" clip-rule="evenodd" d="M20.5 38.1477C30.4687 38.1477 38.55 30.0664 38.55 20.0977C38.55 10.1289 30.4687 2.04766 20.5 2.04766C10.5313 2.04766 2.45 10.1289 2.45 20.0977C2.45 30.0664 10.5313 38.1477 20.5 38.1477ZM20.5 39.0977C30.9934 39.0977 39.5 30.5911 39.5 20.0977C39.5 9.60425 30.9934 1.09766 20.5 1.09766C10.0066 1.09766 1.5 9.60425 1.5 20.0977C1.5 30.5911 10.0066 39.0977 20.5 39.0977Z" fill="white"/>
</svg>
