<svg width="41" height="41" viewBox="0 0 41 41" fill="none" xmlns="http://www.w3.org/2000/svg">
<path d="M25.4405 12.0977H28.1548L22.2249 18.8751L29.2009 28.0977H23.7379L19.4598 22.5042L14.5646 28.0977H11.8487L18.1913 20.8484L11.5 12.0977H17.1L20.9671 17.2103L25.4389 12.0977H25.4405ZM24.4879 26.473H25.9919L16.2836 13.6369H14.6696L24.4879 26.473Z" fill="white"/>
<path fill-rule="evenodd" clip-rule="evenodd" d="M20.5 38.1477C30.4687 38.1477 38.55 30.0664 38.55 20.0977C38.55 10.1289 30.4687 2.04766 20.5 2.04766C10.5313 2.04766 2.45 10.1289 2.45 20.0977C2.45 30.0664 10.5313 38.1477 20.5 38.1477ZM20.5 39.0977C30.9934 39.0977 39.5 30.5911 39.5 20.0977C39.5 9.60425 30.9934 1.09766 20.5 1.09766C10.0066 1.09766 1.5 9.60425 1.5 20.0977C1.5 30.5911 10.0066 39.0977 20.5 39.0977Z" fill="white"/>
</svg>
