<svg width="14" height="14" viewBox="0 0 14 14" fill="none" xmlns="http://www.w3.org/2000/svg">
<path d="M12.81 4.46C12.63 4.46 12.55 4.38 12.55 4.2L12.54 4.21V2.48L12.21 2.8L7.13004 7.88C7.00004 8.01 6.94004 8.02 6.86004 7.99C6.82004 7.98 6.77004 7.95 6.72004 7.9L6.11004 7.29C5.94004 7.11 5.94004 7.02 6.11004 6.85L11.2 1.76L11.5 1.44H9.86004C9.60004 1.44 9.54004 1.38 9.54004 1.12V0.27C9.54004 0.08 9.61004 0 9.81004 0C11.12 0 12.42 0 13.72 0.01C13.91 0.01 13.99 0.08 13.99 0.28V4.19C13.99 4.38 13.91 4.46 13.73 4.46H12.81Z" fill="#2D00F7"/>
<path d="M2.13 1.06V1.07H6.8C7.06 1.07 7.12 1.12 7.12 1.39V2.2C7.12 2.44 7.05 2.51 6.81 2.51H2.17C1.68 2.51 1.45 2.75 1.45 3.24V11.84C1.45 12.33 1.68 12.56 2.18 12.56H10.76C11.25 12.56 11.48 12.33 11.48 11.84V7.44C11.48 7.18 11.54 7.12 11.79 7.12H12.66C12.88 7.13 12.91 7.25 12.91 7.36V8.53C12.91 8.9078 12.9111 9.29 12.9122 9.6744C12.9144 10.4499 12.9167 11.2344 12.91 12.01C12.9 13.07 12.03 13.96 10.96 13.99H2.08C1.15 13.99 0.4 13.46 0.11 12.6C0.04 12.38 0 12.14 0 11.9V3.15C0 2.07 0.76 1.21 1.83 1.06H2.13Z" fill="#2D00F7"/>
</svg>
