<svg width="21" height="20" viewBox="0 0 21 20" fill="none" xmlns="http://www.w3.org/2000/svg">
<g clip-path="url(#clip0_4548_44267)">
<path d="M10.5 0C4.97733 0 0.5 4.47733 0.5 10C0.5 15.5227 4.97733 20 10.5 20C16.0227 20 20.5 15.5227 20.5 10C20.5 4.47733 16.0227 0 10.5 0ZM2.76333 8.77533C2.58267 7.96933 2.58667 7.63333 2.594 6.96333C2.62667 6.61067 2.85067 6.23867 3.03133 6.12533C3.236 6.01067 3.23333 6.22533 3.22867 6.52267C4.26733 4.45267 6.082 3.00933 8.20667 2.56267C8.73933 2.46067 9.29133 2.432 9.84667 2.47933C11.592 2.62667 13.3747 3.502 14.5 4.764C14.7813 5.08 15.1007 5.438 14.92 5.69933C14.6707 6.05933 14.17 5.85467 13.948 5.56067C12.636 3.82267 10.4367 2.89867 8.34467 3.206C7.69867 3.30133 6.70667 3.58533 5.65067 4.40133C4.97267 4.92533 4.52867 5.65267 4.01133 6.31667C4.006 6.32467 3.92533 6.436 3.79 6.67933C3.80333 6.668 3.81667 6.65667 3.82933 6.646L3.92467 6.57C3.956 6.546 4.04 6.48267 4.14267 6.47333C4.44733 6.44533 4.53133 6.896 4.29533 7.28933C4.27267 7.32667 4.21 7.42267 4.112 7.502C3.43733 8.04667 3.15467 8.352 2.76333 8.77467V8.77533ZM10.362 9.096C9.442 8.40333 9.66933 6.88667 11.0193 6.67067C11.796 6.58533 12.5053 7.13 12.6 7.886C12.75 9.08067 11.3487 9.83867 10.362 9.09667V9.096ZM5.47133 10.2733C4.56467 9.77733 4.62933 8.08533 5.82333 7.66933C6.432 7.49467 7.01933 7.87467 7.19 8.554C7.47867 9.706 6.40267 10.7827 5.47133 10.2733ZM15.8027 12.03C15.7267 12.138 15.124 12.6727 14.9733 11.6827H14.9727C14.4907 12.4287 11.8953 16.0947 7.96667 15.2947C5.10667 14.712 2.85467 12.4227 3.70533 11.848C3.76067 11.8207 3.95867 11.7553 4.17667 12.048C5.73 14.1293 8.11 14.5387 9.272 14.4527C12.2073 14.2353 13.9593 11.3467 14.0327 11.2233C14.0407 11.2093 14.048 11.1973 14.0553 11.186C14.072 11.1573 14.0953 11.1187 14.1173 11.0827H14.116L13.8973 11.162C13.7513 11.212 13.6113 11.2047 13.482 11.1407C13.134 10.9693 13.03 10.4493 13.3953 10.132C13.4393 10.0933 13.5133 10.0293 15.526 9.36533C15.788 10.3173 15.8367 10.7287 15.9347 11.548C15.9373 11.6167 15.9467 11.8247 15.802 12.03H15.8027Z" fill="#2D00F7"/>
</g>
<defs>
<clipPath id="clip0_4548_44267">
<rect width="20" height="20" fill="white" transform="translate(0.5)"/>
</clipPath>
</defs>
</svg>
