<svg width="24" height="24" viewBox="0 0 137 136" fill="none" xmlns="http://www.w3.org/2000/svg">
<g clip-path="url(#clip0_726_15626)">
<path d="M68.5 0C30.9459 0 0.5 30.4459 0.5 68C0.5 105.554 30.9459 136 68.5 136C106.054 136 136.5 105.554 136.5 68C136.5 30.4459 106.054 0 68.5 0Z" fill="#DBFF00"/>
<path d="M15.8907 59.6727C14.6622 54.1919 14.6894 51.9071 14.7392 47.3511C14.9614 44.9529 16.4846 42.4234 17.7131 41.6527C19.1048 40.873 19.0867 42.3327 19.055 44.3546C26.1179 30.2785 38.4576 20.4639 52.9054 17.4265C56.5275 16.7329 60.2811 16.538 64.0574 16.8599C75.9256 17.8617 88.0478 23.814 95.7 32.3956C97.6131 34.5444 99.7846 36.9788 98.556 38.7559C96.8606 41.2039 93.456 39.8122 91.9464 37.813C83.0248 25.9946 68.0694 19.7113 53.8438 21.8012C49.451 22.4495 42.7054 24.3807 35.5246 29.9295C30.9142 33.4927 27.895 38.4386 24.3771 42.9538C24.3408 43.0082 23.7923 43.7652 22.872 45.4199C22.9627 45.3428 23.0534 45.2658 23.1395 45.1932L23.7878 44.6764C24.0008 44.5132 24.572 44.0826 25.2702 44.0191C27.3419 43.8287 27.9131 46.8932 26.3083 49.5679C26.1542 49.8217 25.728 50.4746 25.0616 51.014C20.4739 54.7178 18.5518 56.794 15.8907 59.6681V59.6727ZM67.5616 61.8532C61.3056 57.1431 62.8515 46.8298 72.0315 45.361C77.3128 44.7807 82.1363 48.4844 82.78 53.6252C83.8 61.749 74.271 66.9034 67.5616 61.8578V61.8532ZM34.3051 69.8591C28.1398 66.4863 28.5795 54.9807 36.6987 52.1519C40.8376 50.9642 44.8315 53.5482 45.992 58.1676C47.955 66.0012 40.6382 73.3226 34.3051 69.8591ZM104.558 81.8044C104.041 82.5388 99.9432 86.1746 98.9187 79.4426H98.9142C95.6366 84.5154 77.9883 109.444 51.2734 104.004C31.8254 100.042 16.5118 84.4746 22.2963 80.5668C22.6726 80.381 24.019 79.9367 25.5014 81.9268C36.064 96.0799 52.248 98.8634 60.1496 98.2786C80.1099 96.8007 92.0235 77.1578 92.5222 76.3191C92.5766 76.2239 92.6264 76.1423 92.6763 76.0652C92.7896 75.8703 92.9483 75.6074 93.0979 75.3626H93.0888L91.6019 75.902C90.6091 76.242 89.6571 76.1922 88.7776 75.757C86.4112 74.5919 85.704 71.0559 88.1883 68.898C88.4875 68.6351 88.9907 68.1999 102.677 63.6847C104.458 70.1583 104.789 72.9554 105.456 78.5268C105.474 78.9938 105.537 80.4082 104.554 81.8044H104.558Z" fill="#2D00F7"/>
</g>
<defs>
<clipPath id="clip0_726_15626">
<rect width="136" height="136" fill="white" transform="translate(0.5)"/>
</clipPath>
</defs>
</svg>
